<svg width="385" height="60" viewBox="0 0 385 60" fill="none" xmlns="http://www.w3.org/2000/svg">
<g filter="url(#filter0_d_3142_11065)">
<rect width="385" height="56" rx="16" fill="white"/>
<rect x="1" y="1" width="383" height="54" rx="15" stroke="black" stroke-width="2"/>
<g clip-path="url(#clip0_3142_11065)">
<path fill-rule="evenodd" clip-rule="evenodd" d="M74.54 28.2614C74.54 27.4459 74.4668 26.6618 74.3309 25.9091H63.5V30.3575H69.6891C69.4225 31.795 68.6123 33.013 67.3943 33.8284V36.7139H71.1109C73.2855 34.7118 74.54 31.7636 74.54 28.2614Z" fill="#4285F4"/>
<path fill-rule="evenodd" clip-rule="evenodd" d="M63.5 39.4998C66.605 39.4998 69.2081 38.4701 71.1109 36.7137L67.3943 33.8282C66.3645 34.5182 65.0472 34.926 63.5 34.926C60.5047 34.926 57.9695 32.903 57.0652 30.1848H53.2231V33.1644C55.1154 36.9228 59.0045 39.4998 63.5 39.4998Z" fill="#34A853"/>
<path fill-rule="evenodd" clip-rule="evenodd" d="M57.0652 30.1851C56.8352 29.4951 56.7045 28.758 56.7045 28.0001C56.7045 27.2421 56.8352 26.5051 57.0652 25.8151V22.8355H53.2232C52.4443 24.388 52 26.1444 52 28.0001C52 29.8557 52.4443 31.6121 53.2232 33.1646L57.0652 30.1851Z" fill="#FBBC05"/>
<path fill-rule="evenodd" clip-rule="evenodd" d="M63.5 21.0739C65.1884 21.0739 66.7043 21.6541 67.8961 22.7936L71.1945 19.4952C69.2029 17.6395 66.5997 16.5 63.5 16.5C59.0045 16.5 55.1154 19.077 53.2231 22.8355L57.0652 25.815C57.9695 23.0968 60.5047 21.0739 63.5 21.0739Z" fill="#EA4335"/>
<path d="M98.1307 25.4347H94.9432C94.8523 24.9119 94.6847 24.4489 94.4403 24.0455C94.196 23.6364 93.892 23.2898 93.5284 23.0057C93.1648 22.7216 92.75 22.5085 92.2841 22.3665C91.8239 22.2188 91.3267 22.1449 90.7926 22.1449C89.8438 22.1449 89.0028 22.3835 88.2699 22.8608C87.5369 23.3324 86.9631 24.0256 86.5483 24.9403C86.1335 25.8494 85.9261 26.9602 85.9261 28.2727C85.9261 29.608 86.1335 30.733 86.5483 31.6477C86.9688 32.5568 87.5426 33.2443 88.2699 33.7102C89.0028 34.1705 89.8409 34.4006 90.7841 34.4006C91.3068 34.4006 91.7955 34.3324 92.25 34.196C92.7102 34.054 93.1222 33.8466 93.4858 33.5739C93.8551 33.3011 94.1648 32.9659 94.4148 32.5682C94.6705 32.1705 94.8466 31.7159 94.9432 31.2045L98.1307 31.2216C98.0114 32.0511 97.7528 32.8295 97.3551 33.5568C96.9631 34.2841 96.4489 34.9261 95.8125 35.483C95.1761 36.0341 94.4318 36.4659 93.5795 36.7784C92.7273 37.0852 91.7813 37.2386 90.7415 37.2386C89.2074 37.2386 87.8381 36.8835 86.6335 36.1733C85.429 35.4631 84.4801 34.4375 83.7869 33.0966C83.0938 31.7557 82.7472 30.1477 82.7472 28.2727C82.7472 26.392 83.0966 24.7841 83.7955 23.4489C84.4943 22.108 85.446 21.0824 86.6506 20.3722C87.8551 19.6619 89.2188 19.3068 90.7415 19.3068C91.7131 19.3068 92.6165 19.4432 93.4517 19.7159C94.2869 19.9886 95.0313 20.3892 95.6847 20.9176C96.3381 21.4403 96.875 22.0824 97.2955 22.8438C97.7216 23.5994 98 24.4631 98.1307 25.4347ZM106.6 37.2557C105.322 37.2557 104.214 36.9744 103.276 36.4119C102.339 35.8494 101.612 35.0625 101.094 34.0511C100.583 33.0398 100.327 31.858 100.327 30.5057C100.327 29.1534 100.583 27.9687 101.094 26.9517C101.612 25.9347 102.339 25.1449 103.276 24.5824C104.214 24.0199 105.322 23.7386 106.6 23.7386C107.879 23.7386 108.987 24.0199 109.924 24.5824C110.862 25.1449 111.586 25.9347 112.097 26.9517C112.614 27.9687 112.873 29.1534 112.873 30.5057C112.873 31.858 112.614 33.0398 112.097 34.0511C111.586 35.0625 110.862 35.8494 109.924 36.4119C108.987 36.9744 107.879 37.2557 106.6 37.2557ZM106.617 34.7841C107.31 34.7841 107.89 34.5937 108.356 34.2131C108.822 33.8267 109.168 33.3097 109.396 32.6619C109.629 32.0142 109.745 31.2926 109.745 30.4972C109.745 29.696 109.629 28.9716 109.396 28.3239C109.168 27.6705 108.822 27.1506 108.356 26.7642C107.89 26.3778 107.31 26.1847 106.617 26.1847C105.907 26.1847 105.316 26.3778 104.844 26.7642C104.379 27.1506 104.029 27.6705 103.796 28.3239C103.569 28.9716 103.455 29.696 103.455 30.4972C103.455 31.2926 103.569 32.0142 103.796 32.6619C104.029 33.3097 104.379 33.8267 104.844 34.2131C105.316 34.5937 105.907 34.7841 106.617 34.7841ZM118.577 29.3295V37H115.491V23.9091H118.44V26.1335H118.594C118.895 25.4006 119.375 24.8182 120.034 24.3864C120.699 23.9545 121.52 23.7386 122.497 23.7386C123.401 23.7386 124.188 23.9318 124.858 24.3182C125.534 24.7045 126.057 25.2642 126.426 25.9972C126.801 26.7301 126.986 27.6193 126.98 28.6648V37H123.895V29.142C123.895 28.267 123.668 27.5824 123.213 27.0881C122.764 26.5937 122.142 26.3466 121.347 26.3466C120.807 26.3466 120.327 26.4659 119.906 26.7045C119.491 26.9375 119.165 27.2756 118.926 27.7188C118.693 28.1619 118.577 28.6989 118.577 29.3295ZM136.653 23.9091V26.2955H129.128V23.9091H136.653ZM130.986 20.7727H134.071V33.0625C134.071 33.4773 134.134 33.7955 134.259 34.017C134.389 34.233 134.56 34.3807 134.77 34.4602C134.98 34.5398 135.213 34.5795 135.469 34.5795C135.662 34.5795 135.838 34.5653 135.997 34.5369C136.162 34.5085 136.287 34.483 136.372 34.4602L136.892 36.8722C136.727 36.929 136.491 36.9915 136.185 37.0597C135.884 37.1278 135.514 37.1676 135.077 37.179C134.304 37.2017 133.608 37.0852 132.989 36.8295C132.369 36.5682 131.878 36.1648 131.514 35.6193C131.156 35.0739 130.98 34.392 130.986 33.5739V20.7727ZM139.234 37V23.9091H142.319V37H139.234ZM140.785 22.0511C140.296 22.0511 139.876 21.8892 139.523 21.5653C139.171 21.2358 138.995 20.8409 138.995 20.3807C138.995 19.9148 139.171 19.5199 139.523 19.196C139.876 18.8665 140.296 18.7017 140.785 18.7017C141.279 18.7017 141.7 18.8665 142.046 19.196C142.398 19.5199 142.575 19.9148 142.575 20.3807C142.575 20.8409 142.398 21.2358 142.046 21.5653C141.7 21.8892 141.279 22.0511 140.785 22.0511ZM148.577 29.3295V37H145.491V23.9091H148.44V26.1335H148.594C148.895 25.4006 149.375 24.8182 150.034 24.3864C150.699 23.9545 151.52 23.7386 152.497 23.7386C153.401 23.7386 154.188 23.9318 154.858 24.3182C155.534 24.7045 156.057 25.2642 156.426 25.9972C156.801 26.7301 156.986 27.6193 156.98 28.6648V37H153.895V29.142C153.895 28.267 153.668 27.5824 153.213 27.0881C152.764 26.5937 152.142 26.3466 151.347 26.3466C150.807 26.3466 150.327 26.4659 149.906 26.7045C149.491 26.9375 149.165 27.2756 148.926 27.7188C148.693 28.1619 148.577 28.6989 148.577 29.3295ZM168.46 31.4943V23.9091H171.545V37H168.554V34.6733H168.418C168.122 35.4062 167.636 36.0057 166.96 36.4716C166.29 36.9375 165.463 37.1705 164.48 37.1705C163.622 37.1705 162.864 36.9801 162.205 36.5994C161.551 36.2131 161.04 35.6534 160.67 34.9205C160.301 34.1818 160.116 33.2898 160.116 32.2443V23.9091H163.202V31.767C163.202 32.5966 163.429 33.2557 163.884 33.7443C164.338 34.233 164.935 34.4773 165.673 34.4773C166.128 34.4773 166.568 34.3665 166.994 34.1449C167.42 33.9233 167.77 33.5938 168.043 33.1562C168.321 32.7131 168.46 32.1591 168.46 31.4943ZM180.513 37.2557C179.201 37.2557 178.067 36.983 177.113 36.4375C176.164 35.8864 175.434 35.108 174.923 34.1023C174.411 33.0909 174.156 31.9006 174.156 30.5312C174.156 29.1847 174.411 28.0028 174.923 26.9858C175.44 25.9631 176.161 25.1676 177.087 24.5994C178.013 24.0256 179.102 23.7386 180.352 23.7386C181.158 23.7386 181.92 23.8693 182.636 24.1307C183.357 24.3864 183.994 24.7841 184.545 25.3239C185.102 25.8636 185.539 26.5511 185.857 27.3864C186.175 28.2159 186.335 29.2045 186.335 30.3523V31.2983H175.604V29.2188H183.377C183.371 28.6278 183.244 28.1023 182.994 27.642C182.744 27.1761 182.394 26.8097 181.945 26.5426C181.502 26.2756 180.985 26.142 180.394 26.142C179.763 26.142 179.21 26.2955 178.732 26.6023C178.255 26.9034 177.883 27.3011 177.616 27.7955C177.354 28.2841 177.221 28.821 177.215 29.4062V31.2216C177.215 31.983 177.354 32.6364 177.633 33.1818C177.911 33.7216 178.3 34.1364 178.8 34.4261C179.3 34.7102 179.886 34.8523 180.556 34.8523C181.005 34.8523 181.411 34.7898 181.775 34.6648C182.138 34.5341 182.454 34.3438 182.721 34.0938C182.988 33.8438 183.19 33.5341 183.326 33.1648L186.207 33.4886C186.025 34.25 185.678 34.9148 185.167 35.483C184.661 36.0455 184.013 36.483 183.224 36.7955C182.434 37.1023 181.531 37.2557 180.513 37.2557ZM197.599 37L193.901 23.9091H197.045L199.347 33.1136H199.466L201.818 23.9091H204.929L207.281 33.0625H207.409L209.676 23.9091H212.83L209.122 37H205.909L203.455 28.1534H203.276L200.821 37H197.599ZM214.984 37V23.9091H218.069V37H214.984ZM216.535 22.0511C216.046 22.0511 215.626 21.8892 215.273 21.5653C214.921 21.2358 214.745 20.8409 214.745 20.3807C214.745 19.9148 214.921 19.5199 215.273 19.196C215.626 18.8665 216.046 18.7017 216.535 18.7017C217.029 18.7017 217.45 18.8665 217.796 19.196C218.148 19.5199 218.325 19.9148 218.325 20.3807C218.325 20.8409 218.148 21.2358 217.796 21.5653C217.45 21.8892 217.029 22.0511 216.535 22.0511ZM227.778 23.9091V26.2955H220.253V23.9091H227.778ZM222.111 20.7727H225.196V33.0625C225.196 33.4773 225.259 33.7955 225.384 34.017C225.514 34.233 225.685 34.3807 225.895 34.4602C226.105 34.5398 226.338 34.5795 226.594 34.5795C226.787 34.5795 226.963 34.5653 227.122 34.5369C227.287 34.5085 227.412 34.483 227.497 34.4602L228.017 36.8722C227.852 36.929 227.616 36.9915 227.31 37.0597C227.009 37.1278 226.639 37.1676 226.202 37.179C225.429 37.2017 224.733 37.0852 224.114 36.8295C223.494 36.5682 223.003 36.1648 222.639 35.6193C222.281 35.0739 222.105 34.392 222.111 33.5739V20.7727ZM233.725 29.3295V37H230.64V19.5455H233.657V26.1335H233.81C234.117 25.3949 234.592 24.8125 235.234 24.3864C235.881 23.9545 236.705 23.7386 237.705 23.7386C238.614 23.7386 239.407 23.929 240.083 24.3097C240.759 24.6903 241.282 25.2472 241.651 25.9801C242.026 26.7131 242.214 27.608 242.214 28.6648V37H239.129V29.142C239.129 28.2614 238.901 27.5767 238.447 27.0881C237.998 26.5937 237.367 26.3466 236.555 26.3466C236.009 26.3466 235.521 26.4659 235.089 26.7045C234.663 26.9375 234.327 27.2756 234.083 27.7188C233.844 28.1619 233.725 28.6989 233.725 29.3295ZM263.141 25.1193C262.999 24.6591 262.803 24.2472 262.553 23.8835C262.309 23.5142 262.013 23.1989 261.667 22.9375C261.326 22.6761 260.934 22.4801 260.491 22.3494C260.048 22.2131 259.565 22.1449 259.042 22.1449C258.104 22.1449 257.269 22.3807 256.536 22.8523C255.803 23.3239 255.227 24.017 254.806 24.9318C254.391 25.8409 254.184 26.9489 254.184 28.2557C254.184 29.5739 254.391 30.6903 254.806 31.6051C255.221 32.5199 255.798 33.2159 256.536 33.6932C257.275 34.1648 258.133 34.4006 259.11 34.4006C259.996 34.4006 260.763 34.2301 261.411 33.8892C262.065 33.5483 262.567 33.0653 262.92 32.4403C263.272 31.8097 263.448 31.071 263.448 30.2244L264.164 30.3352H259.425V27.8636H266.508V29.9602C266.508 31.4545 266.19 32.7472 265.553 33.8381C264.917 34.929 264.042 35.7699 262.928 36.3608C261.815 36.946 260.536 37.2386 259.093 37.2386C257.485 37.2386 256.073 36.8778 254.857 36.1562C253.647 35.429 252.701 34.3977 252.019 33.0625C251.343 31.7216 251.005 30.1307 251.005 28.2898C251.005 26.8807 251.204 25.6222 251.602 24.5142C252.005 23.4062 252.567 22.4659 253.289 21.6932C254.011 20.9148 254.857 20.3239 255.829 19.9205C256.8 19.5114 257.857 19.3068 258.999 19.3068C259.965 19.3068 260.866 19.4489 261.701 19.733C262.536 20.0114 263.278 20.4091 263.925 20.9261C264.579 21.4432 265.116 22.0568 265.536 22.767C265.957 23.4773 266.232 24.2614 266.363 25.1193H263.141ZM275.139 37.2557C273.861 37.2557 272.753 36.9744 271.815 36.4119C270.878 35.8494 270.151 35.0625 269.634 34.0511C269.122 33.0398 268.866 31.858 268.866 30.5057C268.866 29.1534 269.122 27.9687 269.634 26.9517C270.151 25.9347 270.878 25.1449 271.815 24.5824C272.753 24.0199 273.861 23.7386 275.139 23.7386C276.418 23.7386 277.526 24.0199 278.463 24.5824C279.401 25.1449 280.125 25.9347 280.636 26.9517C281.153 27.9687 281.412 29.1534 281.412 30.5057C281.412 31.858 281.153 33.0398 280.636 34.0511C280.125 35.0625 279.401 35.8494 278.463 36.4119C277.526 36.9744 276.418 37.2557 275.139 37.2557ZM275.156 34.7841C275.849 34.7841 276.429 34.5937 276.895 34.2131C277.361 33.8267 277.707 33.3097 277.935 32.6619C278.168 32.0142 278.284 31.2926 278.284 30.4972C278.284 29.696 278.168 28.9716 277.935 28.3239C277.707 27.6705 277.361 27.1506 276.895 26.7642C276.429 26.3778 275.849 26.1847 275.156 26.1847C274.446 26.1847 273.855 26.3778 273.384 26.7642C272.918 27.1506 272.568 27.6705 272.335 28.3239C272.108 28.9716 271.994 29.696 271.994 30.4972C271.994 31.2926 272.108 32.0142 272.335 32.6619C272.568 33.3097 272.918 33.8267 273.384 34.2131C273.855 34.5937 274.446 34.7841 275.156 34.7841ZM289.741 37.2557C288.462 37.2557 287.354 36.9744 286.417 36.4119C285.479 35.8494 284.752 35.0625 284.235 34.0511C283.724 33.0398 283.468 31.858 283.468 30.5057C283.468 29.1534 283.724 27.9687 284.235 26.9517C284.752 25.9347 285.479 25.1449 286.417 24.5824C287.354 24.0199 288.462 23.7386 289.741 23.7386C291.019 23.7386 292.127 24.0199 293.065 24.5824C294.002 25.1449 294.727 25.9347 295.238 26.9517C295.755 27.9687 296.013 29.1534 296.013 30.5057C296.013 31.858 295.755 33.0398 295.238 34.0511C294.727 35.0625 294.002 35.8494 293.065 36.4119C292.127 36.9744 291.019 37.2557 289.741 37.2557ZM289.758 34.7841C290.451 34.7841 291.031 34.5937 291.496 34.2131C291.962 33.8267 292.309 33.3097 292.536 32.6619C292.769 32.0142 292.886 31.2926 292.886 30.4972C292.886 29.696 292.769 28.9716 292.536 28.3239C292.309 27.6705 291.962 27.1506 291.496 26.7642C291.031 26.3778 290.451 26.1847 289.758 26.1847C289.048 26.1847 288.457 26.3778 287.985 26.7642C287.519 27.1506 287.17 27.6705 286.937 28.3239C286.71 28.9716 286.596 29.696 286.596 30.4972C286.596 31.2926 286.71 32.0142 286.937 32.6619C287.17 33.3097 287.519 33.8267 287.985 34.2131C288.457 34.5937 289.048 34.7841 289.758 34.7841ZM304.325 42.1818C303.217 42.1818 302.266 42.0313 301.47 41.7301C300.675 41.4347 300.036 41.0369 299.553 40.5369C299.07 40.0369 298.734 39.483 298.547 38.875L301.325 38.2017C301.45 38.4574 301.632 38.7102 301.871 38.9602C302.109 39.2159 302.43 39.4261 302.834 39.5909C303.243 39.7614 303.757 39.8466 304.376 39.8466C305.251 39.8466 305.976 39.6335 306.55 39.2074C307.124 38.7869 307.411 38.0938 307.411 37.1278V34.6477H307.257C307.098 34.9659 306.865 35.2926 306.558 35.6278C306.257 35.9631 305.857 36.2443 305.357 36.4716C304.862 36.6989 304.24 36.8125 303.49 36.8125C302.484 36.8125 301.572 36.5767 300.754 36.1051C299.942 35.6278 299.294 34.9176 298.811 33.9744C298.334 33.0256 298.095 31.8381 298.095 30.4119C298.095 28.9744 298.334 27.7614 298.811 26.7727C299.294 25.7784 299.945 25.0256 300.763 24.5142C301.581 23.9972 302.493 23.7386 303.499 23.7386C304.266 23.7386 304.896 23.8693 305.391 24.1307C305.891 24.3864 306.288 24.696 306.584 25.0597C306.879 25.4176 307.104 25.7557 307.257 26.0739H307.428V23.9091H310.47V37.2131C310.47 38.3324 310.203 39.2585 309.669 39.9915C309.135 40.7244 308.405 41.2727 307.479 41.6364C306.553 42 305.501 42.1818 304.325 42.1818ZM304.351 34.392C305.004 34.392 305.561 34.233 306.021 33.9148C306.482 33.5966 306.831 33.1392 307.07 32.5426C307.308 31.946 307.428 31.2301 307.428 30.3949C307.428 29.571 307.308 28.8494 307.07 28.2301C306.837 27.6108 306.49 27.1307 306.03 26.7898C305.575 26.4432 305.016 26.2699 304.351 26.2699C303.663 26.2699 303.089 26.4489 302.629 26.8068C302.169 27.1648 301.822 27.6562 301.589 28.2812C301.357 28.9006 301.24 29.6051 301.24 30.3949C301.24 31.196 301.357 31.8977 301.589 32.5C301.828 33.0966 302.178 33.5625 302.638 33.8977C303.104 34.2273 303.675 34.392 304.351 34.392ZM316.717 19.5455V37H313.632V19.5455H316.717ZM325.685 37.2557C324.373 37.2557 323.239 36.983 322.285 36.4375C321.336 35.8864 320.606 35.108 320.094 34.1023C319.583 33.0909 319.327 31.9006 319.327 30.5312C319.327 29.1847 319.583 28.0028 320.094 26.9858C320.612 25.9631 321.333 25.1676 322.259 24.5994C323.185 24.0256 324.273 23.7386 325.523 23.7386C326.33 23.7386 327.092 23.8693 327.808 24.1307C328.529 24.3864 329.165 24.7841 329.717 25.3239C330.273 25.8636 330.711 26.5511 331.029 27.3864C331.347 28.2159 331.506 29.2045 331.506 30.3523V31.2983H320.776V29.2188H328.549C328.543 28.6278 328.415 28.1023 328.165 27.642C327.915 27.1761 327.566 26.8097 327.117 26.5426C326.674 26.2756 326.157 26.142 325.566 26.142C324.935 26.142 324.381 26.2955 323.904 26.6023C323.427 26.9034 323.055 27.3011 322.788 27.7955C322.526 28.2841 322.393 28.821 322.387 29.4062V31.2216C322.387 31.983 322.526 32.6364 322.805 33.1818C323.083 33.7216 323.472 34.1364 323.972 34.4261C324.472 34.7102 325.058 34.8523 325.728 34.8523C326.177 34.8523 326.583 34.7898 326.947 34.6648C327.31 34.5341 327.626 34.3438 327.893 34.0938C328.16 33.8438 328.362 33.5341 328.498 33.1648L331.379 33.4886C331.197 34.25 330.85 34.9148 330.339 35.483C329.833 36.0455 329.185 36.483 328.396 36.7955C327.606 37.1023 326.702 37.2557 325.685 37.2557Z" fill="#18191F"/>
</g>
</g>
<defs>
<filter id="filter0_d_3142_11065" x="0" y="0" width="385" height="60" filterUnits="userSpaceOnUse" color-interpolation-filters="sRGB">
<feFlood flood-opacity="0" result="BackgroundImageFix"/>
<feColorMatrix in="SourceAlpha" type="matrix" values="0 0 0 0 0 0 0 0 0 0 0 0 0 0 0 0 0 0 127 0" result="hardAlpha"/>
<feOffset dy="4"/>
<feColorMatrix type="matrix" values="0 0 0 0 0.0941176 0 0 0 0 0.0980392 0 0 0 0 0.121569 0 0 0 1 0"/>
<feBlend mode="normal" in2="BackgroundImageFix" result="effect1_dropShadow_3142_11065"/>
<feBlend mode="normal" in="SourceGraphic" in2="effect1_dropShadow_3142_11065" result="shape"/>
</filter>
<clipPath id="clip0_3142_11065">
<rect width="281" height="32" fill="white" transform="translate(52 12)"/>
</clipPath>
</defs>
</svg>
