<svg width="128" height="128" viewBox="0 0 128 128" fill="none" xmlns="http://www.w3.org/2000/svg">
<circle cx="64" cy="40" r="16.5" stroke="black" stroke-width="3"/>
<circle cx="36" cy="89" r="16.5" stroke="black" stroke-width="3"/>
<circle cx="92" cy="89" r="16.5" stroke="black" stroke-width="3"/>
<path d="M64 38.25C61 38.25 61 37.1475 61 36.5C61 35.8525 62.05 34.75 64 34.75C65.95 34.75 66.085 35.87 66.1 36.5H69.1C69.0797 35.3078 68.7122 34.1592 68.0579 33.2432C67.4036 32.3271 66.5014 31.6982 65.5 31.46V29.5H62.5V31.4075C59.5 31.985 58 34.2425 58 36.5C58 38.46 58.78 41.75 64 41.75C67 41.75 67 42.94 67 43.5C67 44.06 66.07 45.25 64 45.25C61.24 45.25 61 43.745 61 43.5H58C58 45.11 58.99 47.9625 62.5 48.61V50.5H65.5V48.61C68.5 48.015 70 45.7575 70 43.5C70 41.54 69.22 38.25 64 38.25Z" fill="black"/>
<path d="M36 87.25C33 87.25 33 86.1475 33 85.5C33 84.8525 34.05 83.75 36 83.75C37.95 83.75 38.085 84.87 38.1 85.5H41.1C41.0797 84.3078 40.7122 83.1592 40.0579 82.2432C39.4036 81.3271 38.5015 80.6982 37.5 80.46V78.5H34.5V80.4075C31.5 80.985 30 83.2425 30 85.5C30 87.46 30.78 90.75 36 90.75C39 90.75 39 91.94 39 92.5C39 93.06 38.07 94.25 36 94.25C33.24 94.25 33 92.745 33 92.5H30C30 94.11 30.99 96.9625 34.5 97.61V99.5H37.5V97.61C40.5 97.015 42 94.7575 42 92.5C42 90.54 41.22 87.25 36 87.25Z" fill="black"/>
<path d="M92 87.25C89 87.25 89 86.1475 89 85.5C89 84.8525 90.05 83.75 92 83.75C93.95 83.75 94.085 84.87 94.1 85.5H97.1C97.0797 84.3078 96.7122 83.1592 96.0579 82.2432C95.4036 81.3271 94.5015 80.6982 93.5 80.46V78.5H90.5V80.4075C87.5 80.985 86 83.2425 86 85.5C86 87.46 86.78 90.75 92 90.75C95 90.75 95 91.94 95 92.5C95 93.06 94.07 94.25 92 94.25C89.24 94.25 89 92.745 89 92.5H86C86 94.11 86.99 96.9625 90.5 97.61V99.5H93.5V97.61C96.5 97.015 98 94.7575 98 92.5C98 90.54 97.22 87.25 92 87.25Z" fill="black"/>
<path d="M64 38.25C61 38.25 61 37.1475 61 36.5C61 35.8525 62.05 34.75 64 34.75C65.95 34.75 66.085 35.87 66.1 36.5H69.1C69.0797 35.3078 68.7122 34.1592 68.0579 33.2432C67.4036 32.3271 66.5014 31.6982 65.5 31.46V29.5H62.5V31.4075C59.5 31.985 58 34.2425 58 36.5C58 38.46 58.78 41.75 64 41.75C67 41.75 67 42.94 67 43.5C67 44.06 66.07 45.25 64 45.25C61.24 45.25 61 43.745 61 43.5H58C58 45.11 58.99 47.9625 62.5 48.61V50.5H65.5V48.61C68.5 48.015 70 45.7575 70 43.5C70 41.54 69.22 38.25 64 38.25Z" stroke="black"/>
<path d="M36 87.25C33 87.25 33 86.1475 33 85.5C33 84.8525 34.05 83.75 36 83.75C37.95 83.75 38.085 84.87 38.1 85.5H41.1C41.0797 84.3078 40.7122 83.1592 40.0579 82.2432C39.4036 81.3271 38.5015 80.6982 37.5 80.46V78.5H34.5V80.4075C31.5 80.985 30 83.2425 30 85.5C30 87.46 30.78 90.75 36 90.75C39 90.75 39 91.94 39 92.5C39 93.06 38.07 94.25 36 94.25C33.24 94.25 33 92.745 33 92.5H30C30 94.11 30.99 96.9625 34.5 97.61V99.5H37.5V97.61C40.5 97.015 42 94.7575 42 92.5C42 90.54 41.22 87.25 36 87.25Z" stroke="black"/>
<path d="M92 87.25C89 87.25 89 86.1475 89 85.5C89 84.8525 90.05 83.75 92 83.75C93.95 83.75 94.085 84.87 94.1 85.5H97.1C97.0797 84.3078 96.7122 83.1592 96.0579 82.2432C95.4036 81.3271 94.5015 80.6982 93.5 80.46V78.5H90.5V80.4075C87.5 80.985 86 83.2425 86 85.5C86 87.46 86.78 90.75 92 90.75C95 90.75 95 91.94 95 92.5C95 93.06 94.07 94.25 92 94.25C89.24 94.25 89 92.745 89 92.5H86C86 94.11 86.99 96.9625 90.5 97.61V99.5H93.5V97.61C96.5 97.015 98 94.7575 98 92.5C98 90.54 97.22 87.25 92 87.25Z" stroke="black"/>
<path fill-rule="evenodd" clip-rule="evenodd" d="M65.7516 91.5664C65.533 91.7927 65.4121 92.0958 65.4148 92.4104C65.4175 92.7251 65.5437 93.026 65.7662 93.2485C65.9887 93.471 66.2897 93.5972 66.6043 93.6C66.919 93.6027 67.2221 93.4817 67.4484 93.2631L71.0484 89.6631C71.2734 89.4381 71.3997 89.1329 71.3997 88.8147C71.3997 88.4966 71.2734 88.1914 71.0484 87.9663L67.4484 84.3663C67.3377 84.2517 67.2053 84.1603 67.0589 84.0974C66.9125 84.0345 66.755 84.0014 66.5957 84C66.4363 83.9987 66.2783 84.029 66.1309 84.0894C65.9834 84.1497 65.8494 84.2388 65.7367 84.3515C65.6241 84.4641 65.535 84.5981 65.4746 84.7456C65.4143 84.8931 65.3839 85.0511 65.3853 85.2104C65.3867 85.3698 65.4198 85.5272 65.4827 85.6736C65.5456 85.82 65.637 85.9524 65.7516 86.0631L67.3032 87.6147H58.2C57.8817 87.6147 57.5765 87.7412 57.3515 87.9662C57.1264 88.1913 57 88.4965 57 88.8147C57 89.133 57.1264 89.4382 57.3515 89.6633C57.5765 89.8883 57.8817 90.0147 58.2 90.0147H67.3032L65.7516 91.5664Z" fill="black"/>
<path fill-rule="evenodd" clip-rule="evenodd" d="M65.7516 91.5664C65.533 91.7927 65.4121 92.0958 65.4148 92.4104C65.4175 92.7251 65.5437 93.026 65.7662 93.2485C65.9887 93.471 66.2897 93.5972 66.6043 93.6C66.919 93.6027 67.2221 93.4817 67.4484 93.2631L71.0484 89.6631C71.2734 89.4381 71.3997 89.1329 71.3997 88.8147C71.3997 88.4966 71.2734 88.1914 71.0484 87.9663L67.4484 84.3663C67.3377 84.2517 67.2053 84.1603 67.0589 84.0974C66.9125 84.0345 66.755 84.0014 66.5957 84C66.4363 83.9987 66.2783 84.029 66.1309 84.0894C65.9834 84.1497 65.8494 84.2388 65.7367 84.3515C65.6241 84.4641 65.535 84.5981 65.4746 84.7456C65.4143 84.8931 65.3839 85.0511 65.3853 85.2104C65.3867 85.3698 65.4198 85.5272 65.4827 85.6736C65.5456 85.82 65.637 85.9524 65.7516 86.0631L67.3032 87.6147H58.2C57.8817 87.6147 57.5765 87.7412 57.3515 87.9662C57.1264 88.1913 57 88.4965 57 88.8147C57 89.133 57.1264 89.4382 57.3515 89.6633C57.5765 89.8883 57.8817 90.0147 58.2 90.0147H67.3032L65.7516 91.5664Z" fill="black"/>
<path fill-rule="evenodd" clip-rule="evenodd" d="M80.137 66.3623C79.8317 66.2861 79.5087 66.333 79.2376 66.4926C78.9665 66.6523 78.7689 66.9121 78.6875 67.216C78.6061 67.52 78.6472 67.8437 78.8022 68.1176C78.9571 68.3914 79.2135 68.5935 79.5159 68.6802L84.4336 69.9978C84.741 70.0802 85.0685 70.037 85.344 69.8779C85.6196 69.7188 85.8207 69.4568 85.9031 69.1494L87.2208 64.2318C87.2647 64.0786 87.2777 63.9182 87.2589 63.76C87.2402 63.6017 87.1901 63.4488 87.1116 63.3101C87.0332 63.1714 86.9279 63.0498 86.8019 62.9522C86.6759 62.8547 86.5317 62.7832 86.3778 62.742C86.2239 62.7007 86.0633 62.6905 85.9054 62.712C85.7476 62.7335 85.5955 62.7862 85.4582 62.8671C85.3209 62.948 85.2011 63.0554 85.1058 63.183C85.0104 63.3107 84.9415 63.4561 84.9029 63.6107L84.335 65.7302L79.7834 57.8466C79.6242 57.571 79.3621 57.3699 79.0547 57.2875C78.7473 57.2051 78.4198 57.2482 78.1441 57.4074C77.8685 57.5665 77.6674 57.8286 77.585 58.136C77.5027 58.4434 77.5458 58.771 77.7049 59.0466L82.2565 66.9302L80.137 66.3623Z" fill="black"/>
<path fill-rule="evenodd" clip-rule="evenodd" d="M80.137 66.3623C79.8317 66.2861 79.5087 66.333 79.2376 66.4926C78.9665 66.6523 78.7689 66.9121 78.6875 67.216C78.6061 67.52 78.6472 67.8437 78.8022 68.1176C78.9571 68.3914 79.2135 68.5935 79.5159 68.6802L84.4336 69.9978C84.741 70.0802 85.0685 70.037 85.344 69.8779C85.6196 69.7188 85.8207 69.4568 85.9031 69.1494L87.2208 64.2318C87.2647 64.0786 87.2777 63.9182 87.2589 63.76C87.2402 63.6017 87.1901 63.4488 87.1116 63.3101C87.0332 63.1714 86.9279 63.0498 86.8019 62.9522C86.6759 62.8547 86.5317 62.7832 86.3778 62.742C86.2239 62.7007 86.0633 62.6905 85.9054 62.712C85.7476 62.7335 85.5955 62.7862 85.4582 62.8671C85.3209 62.948 85.2011 63.0554 85.1058 63.183C85.0104 63.3107 84.9415 63.4561 84.9029 63.6107L84.335 65.7302L79.7834 57.8466C79.6242 57.571 79.3621 57.3699 79.0547 57.2875C78.7473 57.2051 78.4198 57.2482 78.1441 57.4074C77.8685 57.5665 77.6674 57.8286 77.585 58.136C77.5027 58.4434 77.5458 58.771 77.7049 59.0466L82.2565 66.9302L80.137 66.3623Z" fill="black"/>
<path fill-rule="evenodd" clip-rule="evenodd" d="M48.9285 63.6746C49.0152 63.9771 49.2172 64.2334 49.491 64.3884C49.7649 64.5433 50.0886 64.5845 50.3926 64.5031C50.6965 64.4216 50.9563 64.2241 51.116 63.953C51.2757 63.6819 51.3225 63.3589 51.2463 63.0536L49.9286 58.1359C49.8462 57.8285 49.6451 57.5665 49.3696 57.4074C49.094 57.2483 48.7665 57.2052 48.4592 57.2875L43.5415 58.6052C43.3869 58.6437 43.2415 58.7127 43.1138 58.808C42.9861 58.9034 42.8787 59.0232 42.7979 59.1605C42.717 59.2978 42.6643 59.4498 42.6428 59.6077C42.6213 59.7656 42.6315 59.9262 42.6727 60.0801C42.714 60.234 42.7855 60.3782 42.883 60.5041C42.9806 60.6301 43.1022 60.7354 43.2409 60.8139C43.3796 60.8924 43.5325 60.9424 43.6907 60.9612C43.849 60.9799 44.0094 60.967 44.1625 60.923L46.2821 60.3551L41.7305 68.2387C41.5713 68.5143 41.5282 68.8419 41.6106 69.1493C41.693 69.4567 41.8941 69.7188 42.1697 69.878C42.4453 70.0371 42.7729 70.0802 43.0803 69.9978C43.3877 69.9155 43.6498 69.7143 43.8089 69.4387L48.3605 61.5551L48.9285 63.6746Z" fill="black"/>
<path fill-rule="evenodd" clip-rule="evenodd" d="M48.9285 63.6746C49.0152 63.9771 49.2172 64.2334 49.491 64.3884C49.7649 64.5433 50.0886 64.5845 50.3926 64.5031C50.6965 64.4216 50.9563 64.2241 51.116 63.953C51.2757 63.6819 51.3225 63.3589 51.2463 63.0536L49.9286 58.1359C49.8462 57.8285 49.6451 57.5665 49.3696 57.4074C49.094 57.2483 48.7665 57.2052 48.4592 57.2875L43.5415 58.6052C43.3869 58.6437 43.2415 58.7127 43.1138 58.808C42.9861 58.9034 42.8787 59.0232 42.7979 59.1605C42.717 59.2978 42.6643 59.4498 42.6428 59.6077C42.6213 59.7656 42.6315 59.9262 42.6727 60.0801C42.714 60.234 42.7855 60.3782 42.883 60.5041C42.9806 60.6301 43.1022 60.7354 43.2409 60.8139C43.3796 60.8924 43.5325 60.9424 43.6907 60.9612C43.849 60.9799 44.0094 60.967 44.1625 60.923L46.2821 60.3551L41.7305 68.2387C41.5713 68.5143 41.5282 68.8419 41.6106 69.1493C41.693 69.4567 41.8941 69.7188 42.1697 69.878C42.4453 70.0371 42.7729 70.0802 43.0803 69.9978C43.3877 69.9155 43.6498 69.7143 43.8089 69.4387L48.3605 61.5551L48.9285 63.6746Z" fill="black"/>
</svg>
